<svg viewBox="0 0 64 64" xmlns="http://www.w3.org/2000/svg">
  <defs>
    <!-- 星空背景渐变 -->
    <linearGradient id="skyGradient" x1="0%" y1="0%" x2="100%" y2="100%">
      <stop offset="0%" style="stop-color:#0f172a"/>
      <stop offset="50%" style="stop-color:#1e3a5f"/>
      <stop offset="100%" style="stop-color:#312e81"/>
    </linearGradient>
    <!-- D字母渐变 -->
    <linearGradient id="dGradient" x1="0%" y1="0%" x2="100%" y2="100%">
      <stop offset="0%" style="stop-color:#60a5fa"/>
      <stop offset="100%" style="stop-color:#3b82f6"/>
    </linearGradient>
    <!-- B字母渐变 -->
    <linearGradient id="bGradient" x1="0%" y1="0%" x2="100%" y2="100%">
      <stop offset="0%" style="stop-color:#a78bfa"/>
      <stop offset="100%" style="stop-color:#8b5cf6"/>
    </linearGradient>
    <!-- 星星发光效果 -->
    <filter id="starGlow" x="-50%" y="-50%" width="200%" height="200%">
      <feGaussianBlur stdDeviation="1" result="coloredBlur"/>
      <feMerge>
        <feMergeNode in="coloredBlur"/>
        <feMergeNode in="SourceGraphic"/>
      </feMerge>
    </filter>
  </defs>
  
  <!-- 圆形背景 -->
  <circle cx="32" cy="32" r="30" fill="url(#skyGradient)" stroke="rgba(255,255,255,0.2)" stroke-width="1"/>
  
  <!-- 星星装饰 -->
  <circle cx="12" cy="14" r="1.2" fill="#fef08a" filter="url(#starGlow)" opacity="0.9"/>
  <circle cx="52" cy="12" r="1" fill="#fef08a" filter="url(#starGlow)" opacity="0.8"/>
  <circle cx="8" cy="45" r="0.8" fill="#fef08a" filter="url(#starGlow)" opacity="0.7"/>
  <circle cx="56" cy="48" r="1.2" fill="#fef08a" filter="url(#starGlow)" opacity="0.9"/>
  <circle cx="48" cy="28" r="0.6" fill="#fef08a" filter="url(#starGlow)" opacity="0.6"/>
  <circle cx="18" cy="52" r="0.7" fill="#fef08a" filter="url(#starGlow)" opacity="0.7"/>
  
  <!-- D字母 -->
  <path d="M 16 18 L 16 46 L 28 46 C 36 46 40 41 40 32 C 40 23 36 18 28 18 Z M 22 24 L 27 24 C 32 24 34 27 34 32 C 34 37 32 40 27 40 L 22 40 Z" 
        fill="url(#dGradient)"/>
  
  <!-- B字母 -->
  <path d="M 32 22 L 32 46 L 44 46 C 50 46 53 43 53 39 C 53 36 51 34 48 33 C 50 32 52 30 52 27 C 52 23 49 22 44 22 Z M 38 27 L 43 27 C 46 27 47 28 47 30 C 47 32 46 33 43 33 L 38 33 Z M 38 37 L 43 37 C 47 37 48 38 48 40 C 48 42 47 43 43 43 L 38 43 Z" 
        fill="url(#bGradient)"/>
</svg>
